#!OML:ASF I:\Actors\actors\Patient Classification 2\Patient 1\Session 1\actor1.ASF
:FULLY-SPECIFIED
:DEGREES
294
root -0.147095 18.8403 4.84633 16.8519 9.04769 -1.50444
lowerback 30.1535 1.43859 -3.38735
upperback 4.40598 0.69483 -0.75946
thorax -11.6927 0.455033 0.818308
lowerneck -7.69053 -1.48706 -3.71067
upperneck -4.79199 -1.5978 5.93992
head -0.107829 -0.717026 2.48458
rclavicle -4.37326e-015 1.55052e-014
rhumerus 16.1442 16.9476 -59.6592
rradius 147.158
rwrist -13.2989
rhand -5.67914 -45.5398
rfingers 7.12502
rthumb 20.1408 -74.5157
lclavicle -4.37326e-015 1.55052e-014
lhumerus 7.96237 -33.6165 70.014
lradius 140.567
lwrist -4.65994
lhand -12.5367 -38.8306
lfingers 7.12502
lthumb 13.5398 -9.29083
rfemur -11.1582 -4.85557 14.546
rtibia -2.38542e-015
rfoot -15.0951 -16.3436
rtoes -9.69922
lfemur -32.79 -2.23269 -13.2124
ltibia 30.0566
lfoot -14.8129 6.8746
ltoes -55.2355
295
root -0.148706 18.8397 4.85073 16.8548 9.10817 -1.4994
lowerback 30.1742 1.38641 -3.37741
upperback 4.37899 0.638337 -0.697782
thorax -11.733 0.431351 0.904922
lowerneck -7.54393 -1.73722 -4.079
upperneck -4.77466 -1.9106 6.08521
head -0.10465 -0.870661 2.59375
rclavicle -2.18663e-014 2.70347e-014
rhumerus 16.216 17.1124 -59.9843
rradius 147.131
rwrist -13.5891
rhand -5.47363 -45.7118
rfingers 7.12502
rthumb 20.3383 -74.6668
lclavicle -2.18663e-014 2.70347e-014
lhumerus 7.92482 -33.6766 69.8811
lradius 140.521
lwrist -4.5213
lhand -12.0679 -39.1355
lfingers 7.12502
lthumb 13.9916 -9.62635
rfemur -11.1251 -4.9115 14.5696
rtibia -3.02153e-014
rfoot -15.1246 -16.2665
rtoes -9.25752
lfemur -32.8238 -2.16854 -13.2735
ltibia 30.0772
lfoot -14.7144 6.97573
ltoes -55.5264
296
root -0.148709 18.8358 4.85321 16.8469 9.20291 -1.46921
lowerback 30.2318 1.34915 -3.32376
upperback 4.38111 0.613684 -0.639839
thorax -11.7588 0.419812 0.949476
lowerneck -7.55323 -1.92591 -4.24305
upperneck -4.77084 -2.15354 6.03906
head -0.0872991 -0.990585 2.60205
rclavicle -1.59028e-015 2.38542e-015
rhumerus 16.222 16.9079 -60.3021
rradius 147.118
rwrist -13.8675
rhand -5.22477 -45.7009
rfingers 7.12502
rthumb 20.5774 -74.6302
lclavicle -1.59028e-015 2.38542e-015
lhumerus 7.93849 -33.8213 69.8297
lradius 140.387
lwrist -4.28901
lhand -11.7076 -39.4701
lfingers 7.12502
lthumb 14.3388 -9.98531
rfemur -11.0721 -5.01034 14.5602
rtibia 2.38542e-014
rfoot -15.1551 -16.1673
rtoes -8.80983
lfemur -32.865 -2.24559 -13.3218
ltibia 30.1207
lfoot -14.6526 7.09825
ltoes -55.7549
297
root -0.149294 18.8323 4.85519 16.8969 9.21934 -1.45331
lowerback 30.1259 1.38772 -3.3585
upperback 4.42649 0.673805 -0.517749
thorax -11.6565 0.44999 1.08778
lowerneck -7.49866 -2.01726 -4.38778
upperneck -4.97485 -2.26126 5.95986
head -0.154848 -1.04468 2.60078
rclavicle -1.19271e-015 -4.37326e-015
rhumerus 16.1215 16.6353 -60.4633
rradius 147.165
rwrist -13.8865
rhand -5.29393 -45.5234
rfingers 7.12502
rthumb 20.511 -74.4599
lclavicle -1.19271e-015 -4.37326e-015
lhumerus 8.00827 -33.9082 69.9386
lradius 140.25
lwrist -4.18455
lhand -11.6735 -39.6913
lfingers 7.12502
lthumb 14.3716 -10.2088
rfemur -11.1129 -5.03533 14.5525
rtibia 6.36111e-015
rfoot -15.1366 -16.1159
rtoes -8.52966
lfemur -32.9555 -2.18076 -13.3669
ltibia 30.1769
lfoot -14.6265 7.0754
ltoes -55.7657
298
root -0.148087 18.8304 4.86111 16.953 9.11751 -1.47352
lowerback 29.9404 1.48615 -3.44208
upperback 4.46044 0.802312 -0.355585
thorax -11.5323 0.513637 1.27436
lowerneck -7.28517 -2.08003 -4.50748
upperneck -5.3755 -2.33194 5.86185
head -0.314492 -1.08331 2.59241
rclavicle -2.46493e-014 9.14409e-015
rhumerus 15.9209 16.6782 -60.4193
rradius 147.178
rwrist -13.2156
rhand -5.95915 -45.0917
rfingers 7.12502
rthumb 19.8716 -74.0958
lclavicle -2.46493e-014 9.14409e-015
lhumerus 7.94866 -33.8577 70.2504
lradius 140.219
lwrist -4.32298
lhand -11.7728 -39.7873
lfingers 7.12502
lthumb 14.276 -10.298
rfemur -11.1882 -4.93859 14.5469
rtibia -5.56597e-015
rfoot -15.0804 -16.1117
rtoes -8.61833
lfemur -33.0081 -1.99513 -13.3996
ltibia 30.2339
lfoot -14.6914 6.99824
ltoes -55.5875
299
root -0.146089 18.8286 4.86289 17.0611 9.11645 -1.44753
lowerback 29.927 1.53567 -3.30624
upperback 4.37633 0.911782 -0.312544
thorax -11.6279 0.560476 1.20181
lowerneck -7.09949 -2.27304 -4.50191
upperneck -5.74136 -2.58608 5.84286
head -0.448706 -1.21545 2.58344
rclavicle -2.98177e-015 1.98785e-015
rhumerus 15.4258 16.9629 -60.3525
rradius 147.069
rwrist -11.5141
rhand -7.17645 -44.3191
rfingers 7.12502
rthumb 18.7011 -73.4401
lclavicle -2.98177e-015 1.98785e-015
lhumerus 7.87017 -34.0243 70.536
lradius 140.277
lwrist -4.48591
lhand -11.8208 -39.806
lfingers 7.12502
lthumb 14.2297 -10.3135
rfemur -11.3072 -4.96221 14.504
rtibia 3.33958e-014
rfoot -15.0536 -16.0934
rtoes -8.59596
lfemur -33.1425 -2.06948 -13.4105
ltibia 30.2844
lfoot -14.7948 7.06922
ltoes -55.3476
300
root -0.142397 18.828 4.86541 17.1988 9.04573 -1.47292
lowerback 29.8857 1.57882 -3.07897
upperback 4.2589 1.03246 -0.34168
thorax -11.7457 0.606674 0.989065
lowerneck -6.85555 -2.59142 -4.41891
upperneck -6.18805 -3.0092 5.98009
head -0.607822 -1.43592 2.6117
rclavicle -6.75868e-015 -4.96962e-015
rhumerus 14.9312 16.6436 -60.5132
rradius 147.133
rwrist -11.7043
rhand -7.1882 -44.4684
rfingers 7.12502
rthumb 18.6898 -73.5906
lclavicle -6.75868e-015 -4.96962e-015
lhumerus 7.7849 -34.4425 70.6653
lradius 140.364
lwrist -4.50211
lhand -11.9372 -40.0539
lfingers 7.12502
lthumb 14.1176 -10.5535
rfemur -11.4781 -4.90953 14.4894
rtibia 4.77083e-015
rfoot -15.055 -16.072
rtoes -8.41171
lfemur -33.3035 -2.10959 -13.3738
ltibia 30.3293
lfoot -14.8815 7.21017
ltoes -55.2288
301
root -0.138607 18.8276 4.86776 17.2707 8.98818 -1.49881
lowerback 29.8775 1.5836 -2.95672
upperback 4.1749 1.08116 -0.295304
thorax -11.8406 0.625931 0.951629
lowerneck -6.59958 -3.01299 -4.49129
upperneck -6.72116 -3.55654 6.19728
head -0.785499 -1.71751 2.69656
rclavicle -3.57812e-015 -1.5704e-014
rhumerus 14.6114 16.3315 -60.7091
rradius 147.13
rwrist -12.0213
rhand -6.77483 -44.5235
rfingers 7.12502
rthumb 19.0874 -73.6069
lclavicle -3.57812e-015 -1.5704e-014
lhumerus 7.60475 -34.8702 70.7569
lradius 140.432
lwrist -4.46544
lhand -12.177 -40.6904
lfingers 7.12502
lthumb 13.8865 -11.174
rfemur -11.5675 -4.86152 14.4779
rtibia 1.11319e-014
rfoot -15.0209 -16.0628
rtoes -8.46829
lfemur -33.3909 -2.06671 -13.3771
ltibia 30.3622
lfoot -14.8685 7.28757
ltoes -55.3294
302
root -0.133905 18.8264 4.8735 17.3544 8.8943 -1.50731
lowerback 29.8014 1.56342 -2.96733
upperback 4.14345 1.07197 -0.159203
thorax -11.8412 0.625944 1.11825
lowerneck -6.63942 -3.64757 -5.13343
upperneck -7.15351 -4.34256 6.69683
head -0.846913 -2.10308 2.97224
rclavicle 9.54166e-015 1.23246e-014
rhumerus 14.5701 15.5425 -61.0985
rradius 147.162
rwrist -14.002
rhand -5.6337 -45.2266
rfingers 7.12502
rthumb 20.1844 -74.1979
lclavicle 9.54166e-015 1.23246e-014
lhumerus 7.4283 -35.1597 70.8453
lradius 140.496
lwrist -4.33341
lhand -12.3232 -41.5483
lfingers 7.12502
lthumb 13.7456 -12.0223
rfemur -11.6607 -4.78277 14.448
rtibia 6.36111e-015
rfoot -14.9996 -16.0793
rtoes -8.6483
lfemur -33.459 -1.91484 -13.4368
ltibia 30.3847
lfoot -14.8399 7.27616
ltoes -55.4128
303
root -0.129682 18.8246 4.87941 17.4323 8.81822 -1.4687
lowerback 29.7321 1.52767 -2.98095
upperback 4.0767 1.03984 -0.033345
thorax -11.8852 0.616316 1.28328
lowerneck -6.4615 -4.52156 -6.02389
upperneck -7.70005 -5.43469 7.46589
head -0.937749 -2.64249 3.38836
rclavicle -3.08116e-014 -2.46493e-014
rhumerus 14.2477 15.2355 -61.4454
rradius 147.21
rwrist -14.0233
rhand -5.52199 -45.1119
rfingers 7.12502
rthumb 20.2918 -74.0719
lclavicle -3.08116e-014 -2.46493e-014
lhumerus 7.18143 -35.5858 70.9714
lradius 140.564
lwrist -4.42974
lhand -12.4666 -42.1288
lfingers 7.12502
lthumb 13.6074 -12.5936
rfemur -11.7334 -4.73145 14.3853
rtibia -5.40694e-014
rfoot -15.0256 -16.1259
rtoes -8.87299
lfemur -33.513 -1.79578 -13.5373
ltibia 30.3952
lfoot -14.8408 7.27113
ltoes -55.4481
304
root -0.124925 18.8232 4.8896 17.499 8.67923 -1.44655
lowerback 29.6403 1.49017 -3.0346
upperback 3.95091 0.999877 0.148233
thorax -11.9878 0.607766 1.53836
lowerneck -5.92477 -5.353 -6.77805
upperneck -8.43746 -6.49969 8.06435
head -1.1482 -3.17726 3.7414
rclavicle 3.97569e-015 7.55382e-015
rhumerus 13.6794 15.4984 -61.602
rradius 147.385
rwrist -12.4332
rhand -6.21827 -44.4213
rfingers 7.12502
rthumb 19.6225 -73.451
lclavicle 3.97569e-015 7.55382e-015
lhumerus 6.8009 -35.9948 71.2572
lradius 140.603
lwrist -5.09405
lhand -12.7954 -42.2875
lfingers 7.12502
lthumb 13.2904 -12.7313
rfemur -11.7909 -4.61 14.3362
rtibia -2.46493e-014
rfoot -15.0203 -16.1921
rtoes -9.50517
lfemur -33.5315 -1.64532 -13.6244
ltibia 30.4021
lfoot -14.8459 7.29692
ltoes -55.5711
305
root -0.118251 18.823 4.90016 17.4914 8.65354 -1.37555
lowerback 29.6604 1.39314 -3.03185
upperback 3.83811 0.899614 0.335865
thorax -12.128 0.570547 1.79082
lowerneck -5.57331 -6.0127 -7.10738
upperneck -9.09393 -7.36692 8.26595
head -1.33613 -3.6156 3.87924
rclavicle -1.98785e-015 1.0138e-014
rhumerus 13.0915 15.3407 -61.867
rradius 147.586
rwrist -12.116
rhand -6.46706 -44.343
rfingers 7.12502
rthumb 19.3833 -73.397
lclavicle -1.98785e-015 1.0138e-014
lhumerus 6.44174 -36.3199 71.5668
lradius 140.689
lwrist -5.61149
lhand -12.7613 -42.6725
lfingers 7.12502
lthumb 13.3233 -13.1184
rfemur -11.73 -4.60803 14.2454
rtibia 8.74653e-015
rfoot -15.0449 -16.2107
rtoes -9.98293
lfemur -33.4685 -1.75407 -13.6976
ltibia 30.404
lfoot -14.9046 7.3565
ltoes -55.5611
306
root -0.115039 18.8231 4.90576 17.5141 8.79803 -1.26509
lowerback 29.6829 1.20095 -3.00171
upperback 3.74204 0.691692 0.552272
thorax -12.2429 0.484623 2.10355
lowerneck -5.56474 -6.47507 -7.29748
upperneck -9.65068 -7.96344 8.33738
head -1.46213 -3.91264 3.93936
rclavicle 1.00386e-014 1.96797e-014
rhumerus 12.6317 15.2532 -62.1365
rradius 147.729
rwrist -12.0071
rhand -6.43845 -44.1758
rfingers 7.12502
rthumb 19.4108 -73.2269
lclavicle 1.00386e-014 1.96797e-014
lhumerus 5.75043 -36.6008 72.1916
lradius 140.884
lwrist -5.83527
lhand -12.6317 -43.1268
lfingers 7.12502
lthumb 13.4482 -13.581
rfemur -11.678 -4.78154 14.1696
rtibia -2.78299e-014
rfoot -15.0842 -16.1955
rtoes -10.1336
lfemur -33.4728 -1.97384 -13.7569
ltibia 30.3928
lfoot -14.972 7.30975
ltoes -55.4067
307
root -0.109686 18.8231 4.92197 17.6061 8.7479 -1.27416
lowerback 29.4106 1.04136 -2.91052
upperback 3.67172 0.545801 0.714104
thorax -12.1776 0.41895 2.29408
lowerneck -5.78203 -6.75129 -7.24478
upperneck -10.1768 -8.30511 8.38095
head -1.57049 -4.08449 3.9423
rclavicle 2.28602e-015 -8.34896e-015
rhumerus 12.3779 15.0885 -62.3923
rradius 147.675
rwrist -12.2831
rhand -6.03862 -44.2089
rfingers 7.12502
rthumb 19.7952 -73.2209
lclavicle 2.28602e-015 -8.34896e-015
lhumerus 4.81203 -36.941 72.993
lradius 141.032
lwrist -6.15189
lhand -13.0503 -43.0119
lfingers 7.12502
lthumb 13.0447 -13.4398
rfemur -11.7336 -4.74007 14.1711
rtibia -3.97569e-015
rfoot -15.1263 -16.1848
rtoes -10.2124
lfemur -33.4965 -2.00012 -13.7304
ltibia 30.3812
lfoot -15.0705 7.30341
ltoes -55.34
308
root -0.103169 18.8221 4.93281 17.7281 8.86619 -1.16967
lowerback 29.2088 0.755639 -2.71033
upperback 3.53992 0.25864 0.796514
thorax -12.2096 0.284196 2.38374
lowerneck -6.11901 -6.90102 -7.05166
upperneck -10.6043 -8.47643 8.43102
head -1.64543 -4.17372 3.91841
rclavicle -4.87022e-015 -1.2921e-015
rhumerus 12.1166 15.1153 -62.5762
rradius 147.416
rwrist -12.6921
rhand -5.32713 -44.3626
rfingers 7.12502
rthumb 20.4791 -73.3026
lclavicle -4.87022e-015 -1.2921e-015
lhumerus 4.03648 -37.1306 73.615
lradius 140.972
lwrist -6.42312
lhand -13.3097 -42.5005
lfingers 7.12502
lthumb 12.7947 -12.9125
rfemur -11.7782 -4.90468 14.0747
rtibia 1.82882e-014
rfoot -15.2243 -16.1342
rtoes -9.91089
lfemur -33.6005 -2.44375 -13.7245
ltibia 30.3959
lfoot -15.1643 7.51275
ltoes -55.3182
